<?xml version="1.0" encoding="UTF-8" standalone="no"?>
<!-- Created with Inkscape (http://www.inkscape.org/) -->

<svg
   xmlns:dc="http://purl.org/dc/elements/1.1/"
   xmlns:cc="http://creativecommons.org/ns#"
   xmlns:rdf="http://www.w3.org/1999/02/22-rdf-syntax-ns#"
   xmlns:svg="http://www.w3.org/2000/svg"
   xmlns="http://www.w3.org/2000/svg"
   xmlns:sodipodi="http://sodipodi.sourceforge.net/DTD/sodipodi-0.dtd"
   xmlns:inkscape="http://www.inkscape.org/namespaces/inkscape"
   width="210mm"
   height="297mm"
   viewBox="0 0 210 297"
   version="1.1"
   id="svg8"
   inkscape:version="0.92.3 (2405546, 2018-03-11)"
   sodipodi:docname="icons.svg">
  <defs
     id="defs2" />
  <sodipodi:namedview
     id="base"
     pagecolor="#ffffff"
     bordercolor="#666666"
     borderopacity="1.0"
     inkscape:pageopacity="0.0"
     inkscape:pageshadow="2"
     inkscape:zoom="0.7"
     inkscape:cx="342.86181"
     inkscape:cy="1089.9893"
     inkscape:document-units="mm"
     inkscape:current-layer="layer1"
     showgrid="false"
     inkscape:window-width="927"
     inkscape:window-height="1025"
     inkscape:window-x="67"
     inkscape:window-y="27"
     inkscape:window-maximized="0" />
  <metadata
     id="metadata5">
    <rdf:RDF>
      <cc:Work
         rdf:about="">
        <dc:format>image/svg+xml</dc:format>
        <dc:type
           rdf:resource="http://purl.org/dc/dcmitype/StillImage" />
        <dc:title></dc:title>
      </cc:Work>
    </rdf:RDF>
  </metadata>
  <g
     inkscape:label="Layer 1"
     inkscape:groupmode="layer"
     id="layer1">
    <circle
       id="path3713"
       cx="40.892239"
       cy="39.61945"
       r="12.561667"
       style="stroke-width:0.26458332"
       inkscape:export-filename="/media/martin/LinuxData/web/timesince/services/ui/src/components/Cards/Timer.button.png"
       inkscape:export-xdpi="96"
       inkscape:export-ydpi="96" />
    <path
       style="stroke-width:0.26458332"
       d="M 64.411781,27.325044 V 52.982908 H 90.069646 V 27.325044 Z m 10.977107,1.807125 h 2.429309 l -1.559594,6.223394 h 4.378544 l 1.574581,-6.223394 h 2.399336 l -1.544608,6.223394 h 4.678786 v 2.309418 h -5.263245 l -1.2299,5.00848 h 4.768702 v 2.293917 h -5.35368 l -1.559078,6.208408 h -2.399337 l 1.544611,-6.208408 h -4.394049 l -1.544609,6.208408 h -2.413804 l 1.559076,-6.208408 h -4.723225 v -2.293917 h 5.278231 l 1.259871,-5.00848 h -4.828645 v -2.309418 h 5.413105 z m 0.315227,8.532812 -1.259871,5.00848 h 4.39353 l 1.2299,-5.00848 z"
       id="rect3719"
       inkscape:connector-curvature="0"
       inkscape:export-filename="/media/martin/LinuxData/web/timesince/services/ui/src/components/Cards/Timer.count.png"
       inkscape:export-xdpi="96"
       inkscape:export-ydpi="96" />
    <rect
       style="stroke-width:0.26458332"
       y="108.49821"
       x="54.489052"
       height="25.657875"
       width="25.657875"
       id="rect3721" />
    <path
       style="stroke-width:0.99999994"
       d="M 380.82812 98.224609 L 380.82812 195.19922 L 477.80273 195.19922 L 477.80273 98.224609 L 380.82812 98.224609 z M 418.70898 118.56055 L 439.92188 118.56055 L 439.92188 189.8418 L 418.70898 189.8418 L 418.70898 118.56055 z M 392.70898 137.84766 L 413.92188 137.84766 L 413.92188 189.8418 L 392.70898 189.8418 L 392.70898 137.84766 z M 444.70898 137.84766 L 465.92188 137.84766 L 465.92188 189.8418 L 444.70898 189.8418 L 444.70898 137.84766 z "
       transform="scale(0.26458333)"
       id="rect3725"
       inkscape:export-filename="/media/martin/LinuxData/web/timesince/services/ui/src/components/Cards/Timer.histogram.png"
       inkscape:export-xdpi="96"
       inkscape:export-ydpi="96" />
  </g>
</svg>
